<?xml version="1.0" standalone="no"?>
<!DOCTYPE svg PUBLIC "-//W3C//DTD SVG 20010904//EN"
 "http://www.w3.org/TR/2001/REC-SVG-20010904/DTD/svg10.dtd">
<svg version="1.0" xmlns="http://www.w3.org/2000/svg"
 width="98.000000pt" height="101.000000pt" viewBox="0 0 98.000000 101.000000"
 preserveAspectRatio="xMidYMid meet">

<g transform="translate(0.000000,101.000000) scale(0.100000,-0.100000)"
fill="#000000" stroke="none">
<path d="M398 878 c73 -90 76 -92 92 -73 13 16 7 22 -104 110 l-51 40 63 -77z"/>
<path d="M591 883 c-74 -60 -80 -68 -67 -82 10 -9 19 -12 25 -6 33 37 131 155
128 155 -2 0 -41 -30 -86 -67z"/>
<path d="M319 818 c81 -99 85 -102 101 -83 7 9 11 17 9 18 -2 2 -42 34 -89 73
l-85 69 64 -77z"/>
<path d="M662 818 c-76 -65 -82 -73 -67 -87 14 -14 18 -13 40 14 56 68 116
145 113 144 -2 0 -40 -32 -86 -71z"/>
<path d="M732 749 c-68 -58 -81 -73 -71 -85 7 -8 15 -13 19 -12 4 2 31 32 60
68 29 36 60 73 68 83 26 30 10 18 -76 -54z"/>
<path d="M259 737 c36 -43 68 -80 72 -82 7 -5 35 23 28 28 -2 2 -31 25 -64 53
-99 82 -102 82 -36 1z"/>
<path d="M189 667 c60 -71 76 -85 88 -76 19 16 17 19 -57 79 -36 29 -74 60
-84 69 -11 9 13 -23 53 -72z"/>
<path d="M797 673 c-63 -53 -75 -68 -66 -79 7 -8 15 -13 19 -12 9 3 130 147
130 154 0 7 -4 4 -83 -63z"/>
<path d="M425 661 c-96 -58 -121 -164 -62 -252 51 -75 147 -99 228 -56 64 34
91 85 87 163 -4 72 -35 121 -91 148 -47 22 -124 21 -162 -3z"/>
<path d="M873 611 c-73 -62 -80 -70 -66 -84 14 -14 21 -8 71 51 31 37 62 75
70 85 25 29 10 19 -75 -52z"/>
<path d="M70 665 c0 -3 28 -39 62 -80 48 -57 65 -72 75 -63 7 6 13 13 13 17 0
4 -34 35 -75 69 -41 34 -75 60 -75 57z"/>
<path d="M127 420 c-37 -44 -65 -80 -63 -80 7 0 151 122 154 130 1 4 -3 12
-11 18 -11 9 -27 -4 -80 -68z"/>
<path d="M802 487 c-10 -11 4 -27 68 -81 44 -37 80 -64 80 -61 0 7 -121 149
-130 153 -4 1 -12 -4 -18 -11z"/>
<path d="M244 408 c-11 -13 -43 -50 -70 -83 -52 -63 -46 -61 51 19 33 28 62
52 64 53 3 2 -2 10 -10 18 -13 14 -17 13 -35 -7z"/>
<path d="M740 415 c-8 -9 -9 -19 -4 -24 52 -48 156 -131 144 -116 -19 25 -110
137 -120 148 -4 4 -13 1 -20 -8z"/>
<path d="M309 333 c-48 -53 -113 -138 -94 -122 11 8 47 37 80 64 33 27 62 51
64 52 3 2 -2 10 -10 18 -13 14 -18 12 -40 -12z"/>
<path d="M670 345 c-15 -18 -18 -14 65 -82 92 -75 94 -73 20 15 -37 45 -69 82
-70 82 -2 0 -8 -7 -15 -15z"/>
<path d="M350 228 c-30 -35 -61 -72 -69 -83 -15 -19 -15 -19 4 -4 11 8 47 37
80 64 33 27 62 51 64 52 3 2 -2 10 -11 19 -13 14 -20 9 -68 -48z"/>
<path d="M600 275 c-8 -9 -9 -19 -4 -23 31 -26 122 -100 139 -112 10 -8 -12
22 -50 68 -37 45 -69 82 -70 82 -2 0 -8 -7 -15 -15z"/>
<path d="M418 158 c-87 -101 -87 -106 -5 -39 91 75 91 75 73 90 -11 9 -25 -1
-68 -51z"/>
<path d="M530 205 c-8 -9 -9 -19 -4 -24 165 -139 173 -143 89 -43 -37 45 -69
82 -70 82 -2 0 -8 -7 -15 -15z"/>
</g>
</svg>
